# xmcd
#
# Track frame offsets: 
#        150
#        9355
#        20947
#        42417
#        57317
#        69817
#        86352
#        101395
#        118302
#        132492
#        145945
#        179347
#        189660
#
# Disc length: 2761 seconds
#
# Revision: 1
# Processed by: cddbd v1.5.2PL0 Copyright (c) Steve Scherf et al.
# Submitted via: ExactAudioCopy v1.0b4
#
DISCID=b50ac70d
DTITLE=Harmonica Henry and The Blues Rockers - Harp Rumble
DYEAR=1999
DGENRE=Blues
TTITLE0=Nobody But You
TTITLE1=Barefoot Rock
TTITLE2=Please Don't Go
TTITLE3=Baby, You Better Listen
TTITLE4=Goin' Away Baby
TTITLE5=This Old Life
TTITLE6=Yeah, Baby Yeah
TTITLE7=You Don't Love Me
TTITLE8=Sad Hours
TTITLE9=Hate To See You Go
TTITLE10=No Lie
TTITLE11=Evans Shuffle
TTITLE12=You're Sweet
EXTD=
EXTT0=
EXTT1=
EXTT2=
EXTT3=
EXTT4=
EXTT5=
EXTT6=
EXTT7=
EXTT8=
EXTT9=
EXTT10=
EXTT11=
EXTT12=
PLAYORDER=
